
<svg width="32" height="32" viewBox="0 0 32 32" fill="none" xmlns="http://www.w3.org/2000/svg">
  <rect width="32" height="32" rx="6" fill="#0074D9"/>
  <path d="M8.5 23.5C8.5 21.567 10.067 20 12 20H14C17.314 20 20 17.314 20 14C20 10.686 17.314 8 14 8H10.5C9.67157 8 9 8.67157 9 9.5C9 10.3284 9.67157 11 10.5 11H14C15.6569 11 17 12.3431 17 14C17 15.6569 15.6569 17 14 17H12C8.68629 17 6 19.6863 6 23C6 24.1046 6.89543 25 8 25H21.5C22.3284 25 23 24.3284 23 23.5C23 22.6716 22.3284 22 21.5 22H12C10.3431 22 8.5 23.6569 8.5 23.5Z" fill="white"/>
</svg>
